<svg width="67" height="70" viewBox="0 0 67 70" fill="none" xmlns="http://www.w3.org/2000/svg">
<rect width="67" height="70" fill="#E5E5E5"/>
<rect width="1600" height="2931" transform="translate(-617 -799)" fill="white"/>
<rect x="-102" y="-25" width="270" height="120" rx="4" fill="#F5F4FA"/>
<path d="M66.9575 33.4715C66.9537 14.9819 51.9617 -0.00373771 33.4715 6.99302e-07C14.9819 0.00373911 -0.00373771 14.9963 6.99302e-07 33.4859C0.00320505 48.0502 9.42131 60.9413 23.2956 65.3713C23.428 65.413 23.5658 65.4343 23.7041 65.4338C23.968 65.4333 24.2265 65.3628 24.4534 65.2287C24.7488 65.0541 24.9693 64.7764 25.0729 64.449L33.5276 37.6521C35.839 37.6404 37.7029 35.7568 37.6906 33.4459C37.6788 31.1345 35.7957 29.2706 33.4843 29.2824C32.8627 29.285 32.2491 29.4282 31.6904 29.7011L20.5212 18.5302C19.9668 17.9951 19.084 18.0106 18.5489 18.5644C18.0266 19.1054 18.0266 19.962 18.5489 20.503L29.7123 31.6792C28.8557 33.4277 29.3454 35.5383 30.8856 36.7303L22.8299 62.2647C6.90964 56.4002 -1.24222 38.7405 4.62227 22.8203C10.4868 6.90002 28.1464 -1.25183 44.0667 4.61266C59.987 10.4771 68.1388 28.1374 62.2743 44.0571C59.4091 51.8351 53.5222 58.1252 45.9509 61.4989L45.0803 57.3989C44.9212 56.6454 44.1805 56.1636 43.4269 56.3233C43.1892 56.3741 42.9687 56.4857 42.7871 56.6475L34.3938 64.1409C33.8181 64.653 33.7669 65.5347 34.2796 66.1105C34.4462 66.2974 34.6598 66.4362 34.8991 66.5126L45.6149 69.9327C46.3482 70.1682 47.1338 69.765 47.3693 69.0312C47.4441 68.7994 47.4564 68.5527 47.4062 68.3145L46.5506 64.2915C58.9413 59.0678 66.9863 46.918 66.9575 33.4715ZM33.479 32.0766C34.2491 32.0766 34.874 32.7014 34.874 33.4715C34.874 34.2422 34.2491 34.8665 33.479 34.8665C32.7084 34.8665 32.084 34.2422 32.084 33.4715C32.084 32.7014 32.7084 32.0766 33.479 32.0766ZM38.0735 64.5916L42.8512 60.3298L44.1698 66.543L38.0735 64.5916Z" fill="#212121"/>
<path d="M31.5879 6.96729V9.7572C31.5879 10.5278 32.2122 11.1522 32.9828 11.1522C33.753 11.1522 34.3778 10.5278 34.3778 9.7572V6.96729C34.3778 6.19717 33.753 5.57233 32.9828 5.57233C32.2122 5.57233 31.5879 6.19717 31.5879 6.96729Z" fill="#2196F3"/>
<path d="M6.4787 32.0765C5.70805 32.0765 5.08374 32.7014 5.08374 33.4715C5.08374 34.2421 5.70805 34.8665 6.4787 34.8665H9.26862C10.0393 34.8665 10.6636 34.2421 10.6636 33.4715C10.6636 32.7014 10.0393 32.0765 9.26862 32.0765H6.4787Z" fill="#2196F3"/>
<path d="M59.4866 34.8665C60.2572 34.8665 60.8815 34.2421 60.8815 33.4715C60.8815 32.7014 60.2572 32.0765 59.4866 32.0765H56.6967C55.9265 32.0765 55.3017 32.7014 55.3017 33.4715C55.3017 34.2421 55.9265 34.8665 56.6967 34.8665H59.4866Z" fill="#2196F3"/>
</svg>
